<svg id="visual" viewBox="0 0 960 540" width="960" height="540" xmlns="http://www.w3.org/2000/svg" xmlns:xlink="http://www.w3.org/1999/xlink" version="1.1"><rect x="0" y="0" width="960" height="540" fill="#fff"></rect><defs><linearGradient id="grad1_0" x1="43.8%" y1="0%" x2="100%" y2="100%"><stop offset="14.444444444444446%" stop-color="#f2622e" stop-opacity="1"></stop><stop offset="85.55555555555554%" stop-color="#f2622e" stop-opacity="1"></stop></linearGradient></defs><defs><linearGradient id="grad1_1" x1="43.8%" y1="0%" x2="100%" y2="100%"><stop offset="14.444444444444446%" stop-color="#f2622e" stop-opacity="1"></stop><stop offset="85.55555555555554%" stop-color="#ffffff" stop-opacity="1"></stop></linearGradient></defs><defs><linearGradient id="grad2_0" x1="0%" y1="0%" x2="56.3%" y2="100%"><stop offset="14.444444444444446%" stop-color="#f2622e" stop-opacity="1"></stop><stop offset="85.55555555555554%" stop-color="#f2622e" stop-opacity="1"></stop></linearGradient></defs><defs><linearGradient id="grad2_1" x1="0%" y1="0%" x2="56.3%" y2="100%"><stop offset="14.444444444444446%" stop-color="#ffffff" stop-opacity="1"></stop><stop offset="85.55555555555554%" stop-color="#f2622e" stop-opacity="1"></stop></linearGradient></defs><g transform="translate(960, 0)"><path d="M0 243C-29 227.5 -58 212.1 -81.1 195.9C-104.2 179.6 -121.4 162.7 -147.1 147.1C-172.8 131.5 -207.1 117.3 -224.5 93C-241.9 68.7 -242.5 34.4 -243 0L0 0Z" fill="#ffb294"></path><path d="M0 121.5C-14.5 113.8 -29 106 -40.6 97.9C-52.1 89.8 -60.7 81.3 -73.5 73.5C-86.4 65.7 -103.5 58.6 -112.3 46.5C-121 34.4 -121.2 17.2 -121.5 0L0 0Z" fill="#f2622e"></path></g><g transform="translate(0, 540)"><path d="M0 -243C27.7 -231.1 55.3 -219.1 86.9 -209.7C118.4 -200.3 153.8 -193.5 171.8 -171.8C189.9 -150.2 190.6 -113.8 199.6 -82.7C208.5 -51.6 225.8 -25.8 243 0L0 0Z" fill="#ffb294"></path><path d="M0 -121.5C13.8 -115.5 27.7 -109.6 43.4 -104.9C59.2 -100.2 76.9 -96.7 85.9 -85.9C94.9 -75.1 95.3 -56.9 99.8 -41.3C104.3 -25.8 112.9 -12.9 121.5 0L0 0Z" fill="#f2622e"></path></g></svg>