<?xml version="1.0" encoding="UTF-8"?>
<svg width="1378px" height="2185px" viewBox="0 0 1378 2185" xmlns="http://www.w3.org/2000/svg" xmlns:xlink="http://www.w3.org/1999/xlink" version="1.1">
 <!-- Generated by Pixelmator Pro 1.6.4 -->
 <g id="New-Group-Copiar">
  <g id="New-Group-Copiar-1">
   <g id="New-Group">
    <path id="J" d="M1084.566 1455.438 C1084.566 1580.309 1066.104 1677.318 1029.18 1746.468 960.702 1872.682 830.461 1935.788 638.454 1935.788 527.681 1935.788 433.022 1905.745 354.474 1845.659 275.926 1785.573 236.652 1678.662 236.652 1524.922 L236.652 1419.185 424.965 1419.185 424.965 1524.922 C424.965 1605.484 442.924 1666.073 478.841 1706.69 514.758 1747.307 570.648 1767.615 646.511 1767.615 753.256 1767.615 823.075 1731.027 855.971 1657.849 876.112 1612.869 886.182 1527.944 886.182 1403.073 L886.182 417.196 1084.566 417.196 Z" fill="#000000" fill-opacity="1" stroke="none"/>
    <defs>
     <text id="string" transform="matrix(1.0 0.0 0.0 1.0 404.35987937801997 -518.0558526629)" font-family="Ayuthaya, Ayuthaya" x="3.284728019253066" fill="#000000" y="2201.0" font-size="2062.384" text-decoration="none">j</text>
    </defs>
    <use id="j" xlink:href="#string"/>
   </g>
  </g>
  <g id="casita-5-Copiar">
   <path id="Rectángulo-Copiar-2" d="M539.706 1361.423 L539.706 845.153 527.19 845.153 527.19 1361.423 Z" fill="#000000" fill-opacity="1" stroke="none"/>
   <path id="Rectángulo-Copiar-3" d="M586.639 1406.792 L586.639 890.522 574.124 890.522 574.124 1406.792 Z" fill="#000000" fill-opacity="1" stroke="none"/>
   <path id="Rectángulo-Copiar-5" d="M430.194 1317.618 L793.147 1317.618 793.147 1305.103 430.194 1305.103 Z" fill="#000000" fill-opacity="1" stroke="none"/>
   <path id="Rectángulo-Copiar-4" d="M469.305 1361.423 L852.596 1361.423 852.596 1348.907 469.305 1348.907 Z" fill="#000000" fill-opacity="1" stroke="none"/>
   <path id="Rectángulo-Copiar-8" d="M326.447 812.944 L747.844 938.173 751.41 926.176 326.94 801.348 Z" fill="#000000" fill-opacity="1" stroke="none"/>
   <path id="Rectángulo-Copiar-7" d="M313.968 854.933 L808.848 1002.001 812.413 990.003 317.534 842.936 Z" fill="#000000" fill-opacity="1" stroke="none"/>
   <path id="Rectángulo" d="M98.529 1361.423 L473.998 1361.423 473.998 1305.103 98.529 1305.103 Z" fill="#000000" fill-opacity="1" stroke="none"/>
   <path id="Rectángulo-Copiar" d="M417.678 1234.702 L417.678 1361.423 473.998 1361.423 473.998 1234.702 Z" fill="#000000" fill-opacity="1" stroke="none"/>
   <path id="Rectángulo-Copiar-1" d="M98.529 978.132 L98.529 1359.859 154.85 1359.859 154.85 978.132 Z" fill="#000000" fill-opacity="1" stroke="none"/>
   <path id="Rectángulo-Copiar-6" d="M326.94 801.348 L25 1031.571 25 1084.515 326.94 856.104 Z" fill="#000000" fill-opacity="1" stroke="none"/>
   <g id="New-Group-Copiar-1">
    <path id="Rectángulo-1" d="M286.528 1135.963 L331.363 1135.963 331.363 1091.127 286.528 1091.127 Z" fill="#000000" fill-opacity="1" stroke="none"/>
    <path id="Rectángulo-Copiar-1" d="M341.553 1135.963 L386.389 1135.963 386.389 1091.127 341.553 1091.127 Z" fill="#000000" fill-opacity="1" stroke="none"/>
    <path id="Rectángulo-Copiar-2-1" d="M286.528 1079.918 L331.363 1079.918 331.363 1035.083 286.528 1035.083 Z" fill="#000000" fill-opacity="1" stroke="none"/>
    <path id="Rectángulo-Copiar-1-1" d="M341.553 1079.918 L386.389 1079.918 386.389 1035.083 341.553 1035.083 Z" fill="#000000" fill-opacity="1" stroke="none"/>
   </g>
  </g>
 </g>
</svg>
